<svg width="129" height="24" viewBox="0 0 129 24" fill="none" xmlns="http://www.w3.org/2000/svg">
<g clip-path="url(#clip0_2_1809)">
<path d="M49.2905 6.59338C47.5548 6.59338 46.5497 7.01215 45.536 7.97966V4.12695H41.5938V19.8699H45.536V12.849C45.536 11.0237 46.5353 10.2006 47.9822 10.2006C49.2443 10.2006 50.2724 10.9486 50.2724 12.5399V19.8699H54.2147V11.9768C54.2176 8.50529 51.9446 6.59338 49.2905 6.59338Z" fill="black"/>
<path d="M68.5427 6.73242V19.8703H64.5109V18.6342C63.786 19.6075 62.4402 20.2371 60.6669 20.2371C57.9521 20.2371 55.6416 18.3454 55.6416 14.7989V6.73242H59.6734V14.2212C59.6734 15.8501 60.7218 16.6126 62.0127 16.6126C63.4914 16.6126 64.5109 15.7721 64.5109 13.9064V6.73242H68.5427Z" fill="black"/>
<path d="M75.8495 15.1679V10.5152H78.0242V6.73176H75.8495V4.5166H71.8206V5.9953C71.8206 6.40252 71.4913 6.73176 71.0841 6.73176H69.6689V10.5152H71.8206V15.1679C71.8206 18.8444 73.3513 20.3953 78.6191 19.8726V16.2971C76.8458 16.4011 75.8495 16.2971 75.8495 15.1679Z" fill="black"/>
<path d="M87.9161 10.5152V6.73176H85.1493V4.5166H81.1175V5.9953C81.1175 6.40252 80.7883 6.73176 80.381 6.73176H78.9688V10.5152H81.1175V15.1679C81.1175 18.8444 82.6511 20.3953 87.9161 19.8726V16.2971C86.1428 16.4011 85.1493 16.2971 85.1493 15.1679V10.5152H87.9161Z" fill="black"/>
<path d="M89.4463 4.51953V19.8726H93.4752V4.51953H89.4463Z" fill="black"/>
<path d="M101.975 16.5029C103.029 16.5029 103.93 16.1014 104.444 15.5469L107.531 17.2826C106.272 18.9924 104.369 19.8733 101.926 19.8733C97.5271 19.8733 94.8008 16.9823 94.8008 13.2364C94.8008 9.49058 97.5791 6.59961 101.643 6.59961C105.397 6.59961 108.176 9.44149 108.176 13.2364C108.176 13.765 108.124 14.2675 108.022 14.744H98.8874C99.3784 16.0494 100.56 16.5029 101.975 16.5029ZM104.34 11.9252C103.927 10.4668 102.772 9.93824 101.614 9.93824C100.147 9.93824 99.1705 10.6429 98.8094 11.9252H104.34Z" fill="black"/>
<path d="M117.553 6.62849V10.4956C115.895 10.2328 113.539 11.1772 113.539 13.7678L113.536 19.9166H109.521L109.524 6.59961H113.539V8.56062C114.073 6.80466 115.867 6.6256 117.553 6.62849Z" fill="black"/>
<path d="M30.5789 18.7491C30.1081 18.4256 29.724 18.0704 29.3976 17.6285C28.7189 16.8314 28.4532 16.0632 28.3926 15.3556L32.1731 14.5585C32.2308 15.0899 32.4677 15.5635 32.8807 15.9448C33.3225 16.3578 33.854 16.5657 34.5327 16.5657C35.6532 16.5657 36.2453 15.9159 36.2453 15.2949C36.2453 14.674 35.7716 14.2321 34.8272 14.0242L32.9673 13.6112C30.163 12.9902 28.7449 11.4567 28.7449 9.33104C28.7449 8.00252 29.2763 6.85018 30.3392 5.93465C31.4308 4.99025 32.7594 4.5166 34.3536 4.5166C36.6872 4.5166 38.3103 5.43213 39.194 6.52382C39.8438 7.29205 40.1384 8.02852 40.228 8.73898L36.5081 9.5361C36.3002 8.47328 35.5637 7.79458 34.3825 7.79458C33.4092 7.79458 32.7594 8.35487 32.7594 9.03357C32.7594 9.59386 33.1435 9.94909 33.9117 10.0964L35.9478 10.5383C38.8417 11.0986 40.407 12.7823 40.407 14.9975C40.407 16.2365 39.9045 17.4177 38.989 18.3332C38.0446 19.2487 36.4792 19.8697 34.5904 19.8697C32.9384 19.8726 31.4626 19.3989 30.5789 18.7491Z" fill="black"/>
<path d="M120.081 19.0788C119.656 18.7871 119.31 18.4665 119.015 18.068C118.403 17.3488 118.163 16.6557 118.108 16.0174L121.516 15.2983C121.568 15.7777 121.782 16.2051 122.155 16.5488C122.553 16.9214 123.033 17.1091 123.645 17.1091C124.656 17.1091 125.19 16.5228 125.19 15.9626C125.19 15.4023 124.763 15.0037 123.911 14.8189L122.233 14.4463C119.703 13.886 118.423 12.5026 118.423 10.5849C118.423 9.38638 118.903 8.34667 119.861 7.52356C120.846 6.67158 122.045 6.24414 123.483 6.24414C125.586 6.24414 127.053 7.07013 127.85 8.05497C128.436 8.74811 128.702 9.41237 128.783 10.0535L125.427 10.7727C125.239 9.81381 124.575 9.20154 123.509 9.20154C122.631 9.20154 122.045 9.70696 122.045 10.3192C122.045 10.8246 122.391 11.1452 123.085 11.2781L124.921 11.6766C127.532 12.182 128.942 13.7012 128.942 15.6968C128.942 16.8145 128.488 17.8802 127.662 18.7062C126.81 19.5322 125.398 20.0896 123.694 20.0896C122.212 20.0896 120.881 19.6651 120.081 19.0788Z" fill="black"/>
<path d="M19.3584 21.4756C14.1252 25.5392 6.58732 24.5919 2.5209 19.3587C-1.54264 14.1254 -0.59535 6.58753 4.64075 2.52111C9.87396 -1.54243 17.4119 -0.595139 21.4783 4.63807C25.5418 9.87418 24.5917 17.4121 19.3584 21.4756Z" fill="#141615"/>
<path d="M18.0683 10.3828C17.1528 9.07735 15.5586 8.52861 14.0972 8.88674C13.7189 8.97916 13.3492 9.13222 13.0026 9.34883C12.9448 9.38349 12.8871 9.42103 12.8322 9.46147L10.0943 11.3792C10.0943 11.382 10.0943 11.3849 10.0914 11.3878C10.051 11.538 9.96145 11.6766 9.8286 11.7777C9.82282 11.7835 9.81704 11.7864 9.80838 11.7922C9.49647 12.0116 9.06903 11.951 8.82932 11.6593C8.82354 11.6506 8.81777 11.6449 8.81199 11.6362C8.80621 11.6275 8.80044 11.6218 8.79466 11.6131C8.78889 11.6044 8.78311 11.5986 8.77733 11.59C8.77156 11.5813 8.76867 11.5727 8.76289 11.564C8.57228 11.2405 8.65892 10.8189 8.97372 10.5994C9.11813 10.4983 9.28852 10.4579 9.45026 10.4694L14.0596 7.24053L13.973 3.39648L6.85387 8.38132C6.00477 8.97627 5.47625 9.86002 5.30874 10.8073C5.14123 11.7546 5.33473 12.7654 5.93257 13.6174C6.84809 14.9228 8.44231 15.4716 9.90369 15.1135C10.282 15.021 10.6517 14.868 10.9983 14.6514C11.056 14.6167 11.1138 14.5792 11.1687 14.5387L13.9066 12.621C13.9066 12.6181 13.9095 12.6153 13.9095 12.6124C13.9499 12.4622 14.0394 12.3236 14.1723 12.2254C14.1781 12.2196 14.1867 12.2138 14.1925 12.2109C14.5044 11.9914 14.9318 12.0521 15.1716 12.3438C15.1773 12.3524 15.1831 12.3582 15.1889 12.3669C15.1947 12.3755 15.2004 12.3813 15.2062 12.39C15.212 12.3987 15.2178 12.4044 15.2235 12.4131C15.2293 12.4218 15.2322 12.4304 15.238 12.4391C15.4286 12.7625 15.342 13.1842 15.03 13.4037C14.8856 13.5048 14.7181 13.5481 14.5535 13.5337L9.94123 16.7597L10.0279 20.6037L17.147 15.6189C17.9961 15.0239 18.5246 14.1402 18.6921 13.1929C18.8596 12.2456 18.6661 11.2319 18.0683 10.3828Z" fill="#20E682"/>
</g>
<defs>
<clipPath id="clip0_2_1809">
<rect width="128.95" height="24" fill="white"/>
</clipPath>
</defs>
</svg>
