<svg width="20" height="18" viewBox="0 0 20 18" fill="none" xmlns="http://www.w3.org/2000/svg">
<path d="M3.28125 5.05957H16.7188" stroke="#131516" stroke-width="1.5" stroke-linecap="round" stroke-linejoin="round"/>
<path d="M3.28125 8.43262H16.7188" stroke="#131516" stroke-width="1.5" stroke-linecap="round" stroke-linejoin="round"/>
<path d="M16.7188 13.4924H3.28125V4.49716C3.28125 4.04984 3.47879 3.62084 3.83042 3.30454C4.18206 2.98824 4.65897 2.81055 5.15625 2.81055H14.8438C15.341 2.81055 15.8179 2.98824 16.1696 3.30454C16.5212 3.62084 16.7188 4.04984 16.7188 4.49716V13.4924Z" stroke="#131516" stroke-width="1.5" stroke-linecap="round" stroke-linejoin="round"/>
<path d="M16.7188 13.4932V15.1798C16.7188 15.3289 16.6529 15.4719 16.5357 15.5773C16.4185 15.6827 16.2595 15.742 16.0938 15.742H14.2188C14.053 15.742 13.894 15.6827 13.7768 15.5773C13.6596 15.4719 13.5938 15.3289 13.5938 15.1798V13.4932" stroke="#131516" stroke-width="1.5" stroke-linecap="round" stroke-linejoin="round"/>
<path d="M6.40625 13.4932V15.1798C6.40625 15.3289 6.3404 15.4719 6.22319 15.5773C6.10598 15.6827 5.94701 15.742 5.78125 15.742H3.90625C3.74049 15.742 3.58152 15.6827 3.46431 15.5773C3.3471 15.4719 3.28125 15.3289 3.28125 15.1798V13.4932" stroke="#131516" stroke-width="1.5" stroke-linecap="round" stroke-linejoin="round"/>
<path d="M6.5625 11.8067C7.08027 11.8067 7.5 11.4292 7.5 10.9634C7.5 10.4977 7.08027 10.1201 6.5625 10.1201C6.04473 10.1201 5.625 10.4977 5.625 10.9634C5.625 11.4292 6.04473 11.8067 6.5625 11.8067Z" fill="#131516"/>
<path d="M13.4375 11.8067C13.9553 11.8067 14.375 11.4292 14.375 10.9634C14.375 10.4977 13.9553 10.1201 13.4375 10.1201C12.9197 10.1201 12.5 10.4977 12.5 10.9634C12.5 11.4292 12.9197 11.8067 13.4375 11.8067Z" fill="#131516"/>
</svg>
