<svg width="24" height="24" viewBox="0 0 24 24" fill="none" xmlns="http://www.w3.org/2000/svg">
<path d="M7.5 11.999H16.5" stroke="#4848ED" stroke-width="2" stroke-linecap="round" stroke-linejoin="round"/>
<path d="M9.74951 16.5H5.99951C4.80604 16.5 3.66144 16.0259 2.81753 15.182C1.97362 14.3381 1.49951 13.1935 1.49951 12C1.49951 10.8065 1.97362 9.66193 2.81753 8.81802C3.66144 7.97411 4.80604 7.5 5.99951 7.5H9.74951" stroke="#4848ED" stroke-width="2" stroke-linecap="round" stroke-linejoin="round"/>
<path d="M14.25 16.5H18C19.1935 16.5 20.3381 16.0259 21.182 15.182C22.0259 14.3381 22.5 13.1935 22.5 12C22.5 10.8065 22.0259 9.66193 21.182 8.81802C20.3381 7.97411 19.1935 7.5 18 7.5H14.25" stroke="#4848ED" stroke-width="2" stroke-linecap="round" stroke-linejoin="round"/>
</svg>
