<svg width="14" height="15" viewBox="0 0 14 15" fill="none" xmlns="http://www.w3.org/2000/svg">
<path fill-rule="evenodd" clip-rule="evenodd" d="M1.1665 10.5417C1.51168 10.5417 1.7915 10.8215 1.7915 11.1667V12.8333C1.7915 12.9484 1.88478 13.0417 1.99984 13.0417H11.9998C12.1149 13.0417 12.2082 12.9484 12.2082 12.8333V11.1667C12.2082 10.8215 12.488 10.5417 12.8332 10.5417C13.1783 10.5417 13.4582 10.8215 13.4582 11.1667V12.8333C13.4582 13.6387 12.8053 14.2917 11.9998 14.2917H1.99984C1.19442 14.2917 0.541504 13.6387 0.541504 12.8333V11.1667C0.541504 10.8215 0.821326 10.5417 1.1665 10.5417Z" fill="#000005"/>
<path d="M5.94813 0.125C5.51947 0.125 5.16189 0.452602 5.12446 0.879624C4.99643 2.34022 4.97384 3.80799 5.05682 5.27154C4.851 5.28291 4.64526 5.29609 4.43961 5.31108L3.19836 5.40156C2.71977 5.43645 2.45224 5.97008 2.71061 6.37444C3.59564 7.75951 4.73603 8.96362 6.07099 9.92258L6.56827 10.2798C6.82619 10.4651 7.17358 10.4651 7.43149 10.2798L7.92878 9.92258C9.26373 8.96362 10.4041 7.75951 11.2892 6.37444C11.5475 5.97008 11.28 5.43645 10.8014 5.40156L9.56015 5.31108C9.35451 5.29609 9.14876 5.28291 8.94294 5.27154C9.02592 3.80799 9.00333 2.34022 8.8753 0.87962C8.83787 0.4526 8.48029 0.125 8.05164 0.125H5.94813Z" fill="#000005"/>
</svg>
