<svg width="22" height="22" viewBox="0 0 22 22" fill="none" xmlns="http://www.w3.org/2000/svg">
<circle cx="11" cy="11" r="11" fill="#0DAC5C"/>
<circle cx="11" cy="11" r="8" fill="white"/>
<circle cx="11" cy="11" r="8" fill="#0DAC5C"/>
<g clip-path="url(#clip0_2_1958)">
<path d="M9.57339 14.9999C9.48198 14.9996 9.39161 14.9806 9.30788 14.9439C9.22416 14.9072 9.14888 14.8536 9.08672 14.7866L5.84672 11.3399C5.72561 11.2109 5.66073 11.039 5.66635 10.8621C5.67198 10.6852 5.74765 10.5177 5.87672 10.3966C6.0058 10.2755 6.17769 10.2106 6.3546 10.2162C6.53151 10.2219 6.69894 10.2975 6.82006 10.4266L9.56672 13.3533L15.1734 7.21994C15.2303 7.14909 15.3011 7.09062 15.3814 7.04812C15.4617 7.00562 15.5499 6.97998 15.6404 6.97279C15.731 6.9656 15.8221 6.97701 15.9081 7.00631C15.9942 7.03561 16.0733 7.08218 16.1406 7.14317C16.208 7.20416 16.2622 7.27828 16.2999 7.36097C16.3375 7.44366 16.3579 7.53318 16.3597 7.62403C16.3615 7.71488 16.3448 7.80515 16.3104 7.88928C16.2761 7.97341 16.2249 8.04964 16.1601 8.11327L10.0667 14.7799C10.0052 14.8482 9.93013 14.9029 9.84638 14.9408C9.76263 14.9787 9.67196 14.9988 9.58006 14.9999H9.57339Z" fill="white" stroke="white" stroke-width="0.5"/>
</g>
<defs>
<clipPath id="clip0_2_1958">
<rect width="16" height="16" fill="white" transform="translate(3 3)"/>
</clipPath>
</defs>
</svg>
